<svg xmlns="http://www.w3.org/2000/svg" width="460" height="650" viewBox="0 0 460 650" lang="es" role="img" aria-labelledby="title desc"><title id="title">Comparación conceptual entre ciclos a potencia completa y capacidad variable que sigue la carga.</title><desc id="desc">Patrones conceptuales. La ilustración no atribuye un porcentaje de ahorro a equipos inverter.</desc><rect width="460" height="650" rx="22" fill="#faf8f5"/><g font-family="Arial, sans-serif"><text x="28" y="37" fill="#65594b" font-size="16.00" text-anchor="start" font-weight="400">HANSON HOME / BOMBAS DE CALOR</text><text x="28" y="85" fill="#302d29" font-size="29.00" text-anchor="start" font-weight="400">El compresor</text><text x="28" y="123" fill="#302d29" font-size="29.00" text-anchor="start" font-weight="400">puede variar.</text><text x="55" y="172" fill="#302d29" font-size="19.04" text-anchor="start" font-weight="600">Potencia total / apagado</text><line x1="55" y1="290" x2="425" y2="290" stroke="#302d29" stroke-width="2"/><line x1="55" y1="196" x2="55" y2="290" stroke="#302d29" stroke-width="2"/><line x1="55" y1="254" x2="425" y2="241" stroke="#326c86" stroke-width="2" stroke-dasharray="7 6"/><polyline points="55,290 55,196 92,196 92,290 129,290 129,290 129,196 166,196 166,290 203,290 203,290 203,196 240,196 240,290 277,290 277,290 277,196 314,196 314,290 351,290 351,290 351,196 388,196 388,290 425,290" stroke="#a34f2e" fill="none" stroke-width="4"/><text x="425" y="316" fill="#65594b" font-size="18.00" text-anchor="end" font-weight="400">tiempo →</text><text x="55" y="380" fill="#302d29" font-size="23.72" text-anchor="start" font-weight="600">Potencia variable</text><line x1="55" y1="498" x2="425" y2="498" stroke="#302d29" stroke-width="2"/><line x1="55" y1="404" x2="55" y2="498" stroke="#302d29" stroke-width="2"/><line x1="55" y1="462" x2="425" y2="449" stroke="#326c86" stroke-width="2" stroke-dasharray="7 6"/><path d="M 55 464 C 178.33333333333331 459 301.66666666666663 455 425 449" fill="none" stroke="#3e6c59" stroke-width="5"/><text x="425" y="524" fill="#65594b" font-size="18.00" text-anchor="end" font-weight="400">tiempo →</text><text x="28" y="588" fill="#326c86" font-size="18.00" text-anchor="start" font-weight="400">Línea discontinua: demanda ilustrativa</text><text x="28" y="628" fill="#65594b" font-size="15.00" text-anchor="start" font-weight="400">Ilustración educativa original · Hanson Home</text></g></svg>