<svg xmlns="http://www.w3.org/2000/svg" width="460" height="650" viewBox="0 0 460 650"><rect width="460" height="650" rx="18" fill="#eee8de"/><g fill="#362f28" font-family="Arial, sans-serif"><text x="230" y="45" text-anchor="middle" font-size="28" font-weight="bold">Manual J</text><g transform="translate(-220,30)"><path d="M315 145L450 65L585 145V230H315Z" fill="#fff" stroke="#65594b" stroke-width="4"/><path d="M450 145V230M315 186H585" stroke="#c8bfb2" stroke-width="3"/><rect x="350" y="155" width="42" height="25" fill="#abcbd4"/><rect x="506" y="155" width="42" height="25" fill="#abcbd4"/><rect x="432" y="201" width="35" height="29" fill="#c8bfb2"/><circle cx="290" cy="105" r="23" fill="#d8aa59"/></g><rect x="25" y="295" width="410" height="70" rx="12" fill="#fff" stroke="#c8bfb2"/><circle cx="55" cy="330" r="18" fill="#65594b"/><text x="55" y="336" text-anchor="middle" fill="#fff" font-size="18">1</text><text x="85" y="336" font-size="17">Temperaturas locais de projeto</text><rect x="25" y="380" width="410" height="70" rx="12" fill="#fff" stroke="#c8bfb2"/><circle cx="55" cy="415" r="18" fill="#65594b"/><text x="55" y="421" text-anchor="middle" fill="#fff" font-size="18">2</text><text x="85" y="421" font-size="17">Janelas, portas e exposição ao sol</text><rect x="25" y="465" width="410" height="70" rx="12" fill="#fff" stroke="#c8bfb2"/><circle cx="55" cy="500" r="18" fill="#65594b"/><text x="55" y="506" text-anchor="middle" fill="#fff" font-size="18">3</text><text x="85" y="506" font-size="17">Isolamento e infiltração de ar</text><rect x="25" y="550" width="410" height="70" rx="12" fill="#fff" stroke="#c8bfb2"/><circle cx="55" cy="585" r="18" fill="#65594b"/><text x="55" y="591" text-anchor="middle" fill="#fff" font-size="18">4</text><text x="85" y="591" font-size="17">Dimensões e distribuição dos cômodos</text></g></svg>